<svg width="100" height="100" viewBox="0 0 111 111" fill="none" xmlns="http://www.w3.org/2000/svg">
<g clip-path="url(#clip0_74_3)">
<path d="M102.245 0.792624C102.04 1.06835 101.346 2.17987 100.703 3.26553C99.8651 4.69586 99.5281 5.19561 99.4771 5.07498C99.1809 4.3512 98.4354 2.8261 98.1392 2.36943C97.8124 1.86106 97.1486 1.16313 96.975 1.16313C96.7197 1.16313 96.1682 3.02427 96.0048 4.41152C95.9742 4.75617 95.8925 5.04051 95.8517 5.04051C95.8006 5.04051 95.2185 4.60108 94.5547 4.06686C93.9011 3.54126 93.2066 2.98981 93.033 2.85195L92.7062 2.60207L92.4509 2.85195C92.2875 3.00704 92.1956 3.20522 92.1854 3.38616C92.1854 3.88591 92.4918 4.96297 93.0535 6.37606C93.513 7.53065 93.7377 8.03902 94.3913 9.32287C94.4321 9.38318 94.2789 9.4435 93.9521 9.47796C92.2262 9.66752 90.7965 10.0036 90.0204 10.4085C86.2316 12.3386 83.0657 14.3635 81.4624 15.9058C79.8896 17.4137 78.7458 19.2748 77.1221 22.9626C75.4779 26.6935 74.6609 28.4168 73.9766 29.537C73.4354 30.4331 73.2618 30.6399 72.5878 31.1655C72.1588 31.4929 71.4338 31.984 70.9742 32.2425C70.5044 32.5096 70.1266 32.7681 70.1266 32.8198C70.1266 32.9232 68.2475 33.9313 67.4203 34.2674C65.8884 34.905 65.0306 35.0687 64.1012 34.9308C63.274 34.8102 63.4783 34.7327 60.5269 36.3181C56.3296 38.5756 54.3586 39.4286 52.6429 39.7302C51.8463 39.868 50.9272 39.8336 46.638 39.4889C44.9632 39.351 43.5743 39.2993 41.4807 39.2993C38.4476 39.2907 37.937 39.3338 36.3235 39.7388C35.4963 39.9456 35.3737 39.9456 33.8418 39.8939C32.2487 39.8422 30.9415 39.6957 30.3492 39.5061C30.1858 39.4544 29.9101 39.2907 29.7569 39.1356C26.7238 36.2147 24.8549 33.354 20.5453 25.0737C19.861 23.7467 18.9828 22.101 18.6151 21.4117C15.7046 16.0781 13.703 14.1567 11.5175 14.6047C9.93457 14.9235 10.0469 16.4917 11.926 20.2226C12.263 20.8947 12.5694 21.4979 12.6 21.5582C12.6307 21.6185 12.2426 21.3255 11.7422 20.9033C10.629 19.9641 10.0265 19.6539 9.32183 19.6453C7.96358 19.6367 7.38147 20.7999 7.77975 22.7214C7.96358 23.6606 8.43335 24.9961 9.03588 26.323C9.26055 26.8228 9.47501 27.3053 9.51586 27.4001C9.56693 27.4949 9.22992 27.1416 8.79078 26.6246C6.20704 23.5916 4.81815 22.6266 3.92967 23.2211C3.51096 23.4969 3.39863 23.8329 3.47011 24.6687C3.56202 25.8233 4.27689 27.8395 5.5126 30.4761C5.81897 31.131 6.02322 31.6394 5.95173 31.6049C5.89046 31.579 5.72706 31.4843 5.58408 31.4067C5.19601 31.1827 4.6139 31.0448 4.31774 31.1138C4.17477 31.1396 3.93988 31.2602 3.80712 31.3809C3.55181 31.5963 3.5416 31.5963 3.17395 31.4498C2.9697 31.3723 2.61227 31.3033 2.37738 31.3033C0.937433 31.2775 0.682122 32.7164 1.71358 34.9825C2.4693 36.6283 4.39944 39.6268 6.41129 42.2892C6.9117 42.9441 7.32019 43.4955 7.32019 43.5042C7.32019 43.5128 6.6666 42.9699 5.87003 42.3065C2.95949 39.8853 1.41742 39.2563 0.814884 40.2299C0.130652 41.307 1.67273 44.0901 5.39005 48.5017L6.57469 49.9061L4.98155 49.9578C2.71439 50.0268 1.36635 50.3456 0.743397 50.966C0.4166 51.302 0.396175 51.6553 0.702547 51.8879C0.835309 51.9913 1.3255 52.1809 1.80549 52.3274C2.63269 52.5686 5.75769 53.2235 6.68702 53.3441C7.40189 53.4389 7.26913 53.525 6.31938 53.5767C5.17559 53.6457 4.0318 53.9042 3.50075 54.2144C2.74503 54.6624 2.49993 55.3431 2.86758 55.9462C3.15353 56.4115 4.37902 56.9113 5.66578 57.075L6.14577 57.1353L5.30835 57.4972C3.91946 58.0917 3.44969 58.5656 3.58245 59.1946C3.67436 59.591 4.21562 60.039 4.81815 60.22C5.53302 60.4182 6.89127 60.5474 7.984 60.5129C8.51505 60.5043 8.95418 60.4871 8.95418 60.4871C8.95418 60.4871 8.91333 60.625 8.85206 60.7887C8.6376 61.4091 9.09716 62.0897 9.94479 62.4258C10.8741 62.7963 12.9881 62.736 15.1633 62.2793C15.5412 62.2018 15.8476 62.1759 15.8986 62.219C15.9395 62.2621 16.1539 62.6843 16.3582 63.1582C17.5326 65.8379 19.1972 67.9575 20.8721 68.9053C22.5061 69.8273 25.4472 71.0508 27.9186 71.8263L28.8582 72.1192L29.2871 73.1532C30.1552 75.2642 31.2683 76.9358 32.4019 77.8578C33.178 78.4695 33.7091 78.728 34.8427 79.0124C37.069 79.5724 38.8664 80.5116 42.6858 83.0621C43.6764 83.7255 44.7283 84.3718 45.0142 84.501L45.5453 84.725L46.1989 86.7413C47.649 91.2391 49.7119 96.7191 50.6106 98.4768C50.7332 98.7095 50.8149 98.9077 50.8047 98.9163C50.7842 98.9249 50.4268 99.0541 50.0081 99.2092C49.0277 99.5711 47.9758 100.097 47.7001 100.355C47.5775 100.459 47.312 100.941 47.1078 101.415C46.9035 101.889 46.6686 102.423 46.5972 102.595C46.5155 102.776 46.4848 102.923 46.5359 102.923C46.6891 102.923 48.4252 102.285 48.8337 102.078C49.0583 101.966 49.3851 101.734 49.5588 101.57L49.8753 101.269L51.1417 101.182L52.408 101.096L54.2463 101.613C57.3202 102.483 60.7414 103.604 61.3439 103.931C61.6503 104.103 62.3753 104.543 62.9472 104.922L63.9889 105.594L64.3157 105.353L64.6323 105.111L64.3055 104.56C63.4681 103.164 62.3447 101.889 61.9362 101.889C61.7932 101.889 60.5269 101.269 60.5269 101.2C60.5269 101.174 60.9558 101.079 61.4766 101.001C67.165 100.097 68.2373 99.8985 68.4313 99.709C68.5334 99.6056 68.6458 99.5625 68.656 99.6056C68.7275 99.7521 71.3827 103.535 71.8933 104.198C72.2099 104.603 72.3324 104.836 72.2507 104.862C70.29 105.37 69.5342 105.654 69.2279 105.973C69.1053 106.111 68.7275 106.68 68.3905 107.24L67.7675 108.274L68.0534 108.213C69.7079 107.903 70.5351 107.645 70.9742 107.317C71.4235 106.99 71.7299 106.955 73.078 107.05L74.2422 107.145L74.8753 107.696C75.6004 108.325 75.8251 108.403 77.1221 108.48C78.2863 108.549 80.8905 108.808 83.2291 109.084L85.0265 109.29L86.6809 109.911L88.3353 110.531L88.6315 110.255L88.9276 109.98L88.4068 109.471C88.1311 109.196 87.4775 108.644 86.9771 108.231C86.2724 107.671 85.9558 107.472 85.6188 107.403C84.9244 107.257 83.9746 107.033 83.8725 106.99C83.7397 106.93 84.2912 106.706 87.743 105.422C91.5216 104.017 91.8994 103.75 90.6229 103.405C90.3267 103.328 87.9677 103.517 84.424 103.914C84.1176 103.948 84.1074 103.948 84.332 103.879C84.4852 103.836 85.0061 103.759 85.5065 103.707C86.9669 103.543 86.8954 103.578 86.8545 103.156L86.8239 102.794L85.9048 102.647C83.5048 102.259 82.7491 102.328 79.4914 103.233L77.4693 103.802L77.2446 103.561C75.4677 101.674 72.7716 97.9168 70.7291 94.4788L69.6364 92.6263L70.1164 92.4798C71.0048 92.1955 72.3018 91.1012 73.9971 89.1883C75.0081 88.0682 76.0498 86.7154 76.0498 86.5517C76.0498 86.5086 76.5604 85.9744 77.1936 85.3713C81.0028 81.7093 82.0955 79.7017 83.7499 73.3859L84.281 71.3696L85.1899 71.0508C88.2638 69.9651 90.531 68.6038 91.9301 67.0442C92.3692 66.5444 92.7471 65.924 93.4313 64.5799C96.107 59.3325 97.7001 53.5595 97.8635 48.5103C97.9044 47.2006 97.9554 46.7612 98.129 46.2959C98.3843 45.5721 98.3333 45.1844 97.8431 44.3227C97.2508 43.2887 97.0771 42.8579 97.0771 42.4443C97.0771 42.2289 97.3733 41.0226 97.741 39.7646C99.1605 34.8705 99.569 32.3459 99.1094 31.1913C98.8541 30.5537 98.0882 27.3225 97.8533 25.8578L97.7818 25.4269L98.0269 25.5734C98.6294 25.9353 99.3545 26.2455 100.1 26.4609C100.805 26.6677 101.08 26.7022 102.091 26.7022C103.194 26.7108 103.307 26.6935 103.879 26.4609C105.921 25.6165 106.861 23.3073 106.319 20.4725L106.258 20.1623L106.84 20.1882C107.239 20.214 107.535 20.2829 107.78 20.4294C108.556 20.8689 109.894 21.0326 110.323 20.7396C110.823 20.4036 110.895 19.9641 110.558 19.2231C110.118 18.215 108.893 16.9053 107.565 16.0006L106.81 15.4922L107.31 15.1734C108.178 14.6306 108.811 13.7259 109.199 12.4937C109.455 11.6665 109.465 9.56413 109.209 8.70249C108.903 7.68575 108.617 7.09122 108.444 7.15153C108.362 7.17738 108.239 7.16015 108.178 7.11707C107.974 6.9792 107.667 6.96197 107.381 7.0826L107.096 7.20323V6.40191C107.096 5.3507 106.942 4.23919 106.718 3.73082C106.626 3.49818 106.524 3.31723 106.493 3.31723C106.452 3.31723 106.238 3.42924 105.993 3.55849C105.482 3.85145 104.665 4.68724 104.032 5.59196C103.776 5.94524 103.531 6.24681 103.491 6.24681C103.439 6.24681 103.429 6.22096 103.45 6.17788C103.48 6.14341 103.552 5.29901 103.623 4.30812C103.807 1.59395 103.572 0.301489 102.898 0.301489C102.663 0.301489 102.551 0.387653 102.245 0.792624ZM56.3398 84.7767C56.9832 85.0525 57.6368 85.354 57.79 85.4488C58.1985 85.6815 59.2095 87.0256 60.4146 88.9126C62.1609 91.6354 62.3345 91.825 63.5089 92.1438C63.8459 92.2386 63.9481 92.342 64.3463 92.9537C65.9701 95.53 67.1752 97.3998 67.696 98.1666C68.0228 98.6578 68.2883 99.08 68.2883 99.0972C68.2883 99.1231 68.2066 99.0972 68.1045 99.0541C67.8798 98.9507 66.2765 98.7526 63.897 98.5285C62.2732 98.3734 62.2119 98.3648 63.2332 98.4079L64.3668 98.451L64.4791 98.0977L64.5914 97.7444L64.0093 97.5204C62.5592 96.969 61.4256 96.7019 60.3226 96.6588C59.4954 96.6243 56.1049 96.7966 55.2777 96.9173C54.9918 96.9603 53.3986 93.4707 52.3161 90.3946C51.7851 88.904 50.8966 86.1037 50.9476 86.0864C51.1008 86.0434 53.8888 84.8026 54.3994 84.5613C54.7671 84.3804 55.0837 84.2425 55.1143 84.2511C55.1449 84.2598 55.6964 84.501 56.3398 84.7767ZM61.9362 98.3304C61.8341 98.3476 61.6707 98.3476 61.5788 98.3304C61.4766 98.3045 61.5583 98.2873 61.7524 98.2873C61.9464 98.2873 62.0281 98.3045 61.9362 98.3304Z" fill="#008000"/>
</g>
<defs>
<clipPath id="clip0_74_3">
<rect width="110.294" height="110.29" fill="white" transform="translate(0.477943 0.301483)"/>
</clipPath>
</defs>
</svg>
