<svg xmlns="http://www.w3.org/2000/svg" width="32" height="32" viewBox="0 0 32 32"><g transform="translate(0 -1020.362)"><path fill="#ffd039" d="m 5.32466,1035.8782 c 0.95745,-0.7779 2.06462,-1.3507 3.25274,-1.6828 l -0.0774,0 c -1.95983,-1.1315 -2.91533,-3.4383 -2.32963,-5.6242 0.58572,-2.1859 2.5666,-3.7059 4.82963,-3.7059 2.26303,0 4.24391,1.52 4.82963,3.7059 0.5857,2.1859 -0.3698,4.4927 -2.32963,5.6242 l -0.0467,0.011 c 1.52506,0.4321 2.90896,1.2593 4.0117,2.3979 l -3.96316,1.6525 -3.01299,-1.9051 -3.05718,1.8956 z" color="#000" overflow="visible" style="isolation:auto;mix-blend-mode:normal"/><path fill="#f0f0f0" style="line-height:normal;text-indent:0;text-align:start;text-decoration-line:none;text-decoration-style:solid;text-decoration-color:#000;text-transform:none;block-progression:tb;isolation:auto;mix-blend-mode:normal" d="m 19.33688,1048.2956 c 0.63661,1.1051 1.74147,1.7882 3.03433,2.165 1.29316,0.3767 2.78761,0.46 4.29435,0.3655 1.35394,-0.085 2.63714,-0.2763 3.8345,-0.5639 l -1.56227,-1.2314 0.91884,-3.4369 -2.70456,-1.3401 0.19418,-3.0177 -2.70449,-1.3402 -0.46356,-3.2289 c -1.20485,1.0917 -2.33698,2.4421 -3.36677,3.9965 -0.83504,1.2605 -1.51027,2.5993 -1.83144,3.9101 -0.32092,1.3106 -0.28296,2.6112 0.35365,3.7162 l 0.007,0.011 z" color="#000" font-family="sans-serif" font-weight="400" overflow="visible"/><path fill="#f0f0f0" d="m 4.5,1035.3621 -2.20508,0.8828 C 1.78199,1037.974 1.5,1039.6551 1.5,1041.241 c 0,3.0822 0.82488,5.6891 2.51367,7.2637 1.66094,1.5488 4.05795,2.3574 6.98242,2.3574 l 0.008,0 c 2.92448,0 5.32149,-0.8086 6.98243,-2.3574 1.6888,-1.5746 2.51367,-4.1813 2.51367,-7.2637 0,-1.1041 -0.13535,-2.2534 -0.38867,-3.4336 l -3.61133,-1.4453 -3,2 -3,-2 -3,2 -3,-3 z" color="#000" font-family="sans-serif" font-weight="400" overflow="visible" style="line-height:normal;text-indent:0;text-align:start;text-decoration-line:none;text-decoration-style:solid;text-decoration-color:#000;text-transform:none;block-progression:tb;isolation:auto;mix-blend-mode:normal"/><path fill="#242c88" style="line-height:normal;text-indent:0;text-align:start;text-decoration-line:none;text-decoration-style:solid;text-decoration-color:#000;text-transform:none;block-progression:tb;isolation:auto;mix-blend-mode:normal" d="M24.191406 1036.1621a.50004997.50004997 0 0 0-.349609.1289c-1.241394 1.1248-2.397928 2.5079-3.447266 4.0918-.10568.1595-.208048.3203-.308593.4824a.50004997.50004997 0 1 0 .849609.5274c.09504-.1533.192599-.3056.292969-.4571.803519-1.2128 1.705147-2.1786 2.613281-3.1035l.304687 2.1309a.50004997.50004997 0 0 0 .273438.3769l2.40625 1.1914-.173828 2.6856a.50004997.50004997 0 0 0 .277344.4805l2.33789 1.1582-.8125 3.041a.50004997.50004997 0 0 0 .173828.5215l.652344.5156c-.859633.1587-1.709621.3298-2.646484.3887-1.467806.092-2.910195.01-4.123047-.3457-1.210478-.3528-2.185995-.9701-2.742188-1.9356a.50004997.50004997 0 0 0-.0039-.01c-.179117-.3126-.307026-.6414-.384766-.9883a.50004997.50004997 0 1 0-.974609.2168c.09008.4019.247838.7906.449219 1.1641a.50004997.50004997 0 0 0 .002 0 .50004997.50004997 0 0 0 .01172.039l.0039.01.0039 0c.01105.02.01205.043.02344.062a.50004997.50004997 0 0 0 .01172.02l.0059.01a.50004997.50004997 0 0 0 .158203.1562c.7313 1.1133 1.862484 1.8345 3.154297 2.2109 1.373467.4001 2.921123.4818 4.466797.3848 1.381043-.087 2.692639-.2814 3.919922-.5762a.50004997.50004997 0 0 0 .191406-.8789l-1.302735-1.0273.833985-3.1191a.50004997.50004997 0 0 0-.261719-.5782l-2.40625-1.1914.173828-2.6855a.50004997.50004997 0 0 0-.277344-.4805l-2.46875-1.2227-.425781-2.9687a.50004997.50004997 0 0 0-.482422-.4297zM11 1024.3633c-2.4869147 0-4.6688352 1.674-5.3125 4.0762-.6436465 2.4021.4087794 4.944 2.5625 6.1875a.5005087.5005087 0 1 0 .5-.8672c-1.7659394-1.0196-2.62346-3.0909-2.0957031-5.0606.5277718-1.9696 2.3065617-3.3359 4.3457031-3.3359 2.039141 0 3.819884 1.3663 4.347656 3.3359.527757 1.9697-.331717 4.041-2.097656 5.0606a.5005087.5005087 0 1 0 .5.8672c2.153721-1.2435 3.206147-3.7854 2.5625-6.1875-.643665-2.4022-2.825585-4.0762-5.3125-4.0762z" color="#000" font-family="sans-serif" font-weight="400" overflow="visible"/><path fill="#242c88" style="line-height:normal;text-indent:0;text-align:start;text-decoration-line:none;text-decoration-style:solid;text-decoration-color:#000;text-transform:none;block-progression:tb;isolation:auto;mix-blend-mode:normal" d="M13.441406 1033.7012a.50004997.50004997 0 0 0-.125.9843c1.440362.4081 2.747566 1.1883 3.789063 2.2637a.50004997.50004997 0 1 0 .71875-.6953c-1.163988-1.2019-2.624612-2.0752-4.234375-2.5312a.50004997.50004997 0 0 0-.148438-.022zM8.5761719 1033.6934a.50004997.50004997 0 0 0-.1328125.019c-1.2541201.3505-2.4229531.9562-3.4335938 1.7773a.50004997.50004997 0 1 0 .6308594.7754c.9042685-.7347 1.9501445-1.2742 3.0722656-1.5879a.50004997.50004997 0 0 0-.1367187-.9843zM13.021484 1023.4277c.967333-.1273 1.959342-.066 2.919922.1914a.50005.50005 0 1 1-.259765.9649c-1.665352-.4462-3.438527-.2117-4.931641.6504a.5005087.5005087 0 0 1-.5-.8672c.861233-.4972 1.804152-.8121 2.771484-.9395z" color="#000" font-family="sans-serif" font-weight="400" overflow="visible"/><path fill="#242c88" style="line-height:normal;text-indent:0;text-align:start;text-decoration-line:none;text-decoration-style:solid;text-decoration-color:#000;text-transform:none;block-progression:tb;isolation:auto;mix-blend-mode:normal" d="m 11.613281,1022.3613 a 0.50004997,0.50004997 0 0 1 0.144531,0.9805 c -0.483482,0.1478 -0.845748,0.7563 -0.736328,1.4121 a 0.50004997,0.50004997 0 1 1 -0.986328,0.1641 c -0.1842301,-1.1042 0.398134,-2.2154 1.431641,-2.5313 a 0.50004997,0.50004997 0 0 1 0.146484,-0.025 z" color="#000" font-family="sans-serif" font-weight="400" overflow="visible"/><path fill="#5e61a3" style="isolation:auto;mix-blend-mode:normal" d="M10.000039 1028.6129a.75.75 0 0 1-.7499999.75.75.75 0 0 1-.75-.75.75.75 0 0 1 .75-.75.75.75 0 0 1 .7499999.75zM14.000039 1028.6129a.75.75 0 0 1-.75.75.75.75 0 0 1-.75-.75.75.75 0 0 1 .75-.75.75.75 0 0 1 .75.75z" color="#000" overflow="visible"/><path fill="#ff5751" style="isolation:auto;mix-blend-mode:normal" d="m 10.000039,1030.9484 a 1.4142137,2.0000238 0 0 1 2,0 l -1,1.4143 z" color="#000" overflow="visible"/><path fill="#fff" style="line-height:normal;text-indent:0;text-align:start;text-decoration-line:none;text-decoration-style:solid;text-decoration-color:#000;text-transform:none;block-progression:tb;isolation:auto;mix-blend-mode:normal" d="m 4.5,1035.3621 -2.20508,0.8828 C 1.78199,1037.974 1.5,1039.6551 1.5,1041.241 c 0,3.0822 0.82488,5.6891 2.51367,7.2637 1.66094,1.5488 4.05795,2.3574 6.98242,2.3574 l 0.008,0 c 2.92448,0 5.32149,-0.8086 6.98243,-2.3574 1.6888,-1.5746 2.51367,-4.1813 2.51367,-7.2637 0,-1.1041 -0.13535,-2.2534 -0.38867,-3.4336 l -3.61133,-1.4453 -3,2 -3,-2 -3,2 -3,-3 z" color="#000" font-family="sans-serif" font-weight="400" overflow="visible"/><path fill="#242c88" style="line-height:normal;text-indent:0;text-align:start;text-decoration-line:none;text-decoration-style:solid;text-decoration-color:#000;text-transform:none;block-progression:tb;isolation:auto;mix-blend-mode:normal" d="m 4.5,1034.8613 a 0.50004997,0.50004997 0 0 0 -0.1855469,0.037 l -2.2050781,0.8828 a 0.50004997,0.50004997 0 0 0 -0.2929688,0.3223 C 1.2925564,1037.8694 1,1039.5951 1,1041.2402 c 0,3.1714 0.841157,5.924 2.671875,7.6309 1.7729409,1.6532 4.3075839,2.4902 7.324219,2.4902 l 0.0078,0 c 3.016645,0 5.551278,-0.837 7.324219,-2.4902 C 20.158839,1047.1642 21,1044.4118 21,1041.2402 c 0,-1.1449 -0.140762,-2.3275 -0.400391,-3.5371 a 0.50004997,0.50004997 0 0 0 -0.302734,-0.3593 l -3.611328,-1.4454 a 0.50004997,0.50004997 0 0 0 -0.462891,0.047 l -2.722656,1.8164 -2.722656,-1.8164 a 0.50004997,0.50004997 0 0 0 -0.554688,0 l -2.6582029,1.7735 -2.7109375,-2.711 A 0.50004997,0.50004997 0 0 0 4.5,1034.8613 Z m -0.1191406,1.0879 2.765625,2.7656 a 0.50004997,0.50004997 0 0 0 0.6308594,0.062 L 10.5,1036.9629 l 2.722656,1.8144 a 0.50004997,0.50004997 0 0 0 0.554688,0 l 2.78125,-1.8535 3.091797,1.2383 c 0.212212,1.0593 0.349609,2.0947 0.349609,3.0781 0,2.9932 -0.80663,5.4562 -2.353516,6.8985 -1.548939,1.4443 -3.810262,2.2226 -6.642578,2.2226 l -0.0078,0 c -2.8323054,0 -5.0916862,-0.7783 -6.6406252,-2.2226 C 2.8086068,1046.6964 2,1044.2332 2,1041.2402 c 0,-1.4578 0.2787643,-3.0238 0.7382812,-4.6347 l 1.6425782,-0.6563 z" color="#000" font-family="sans-serif" font-weight="400" overflow="visible"/></g></svg>