<svg xmlns="http://www.w3.org/2000/svg" viewBox="0 0 32 32"><path d="M9.1 14.6c-2.2 0-4.2-.8-5.8-2.3l.7-.7c1.6 1.5 3.7 2.2 5.8 2 .9-.6 1.9-1.1 3-1.3l.2 1c-1 .2-2 .7-2.8 1.2l-.1.1h-1z"/><path d="M15.1 26.1c-1.6 0-3.1-.7-4-2-2.5 0-4.7-1.9-5-4.4v-.4c-2.3-.9-3.7-3.2-3.5-5.6.1-.7.2-1.3.5-1.9.1-.1.2-.2.4-.3.2 0 .3 0 .4.1 1.6 1.5 3.7 2.2 5.8 2 .9-.6 1.9-1.1 3-1.3.3-.1.5.1.6.4.1.3-.1.5-.4.6-1 .2-2 .7-2.8 1.2-.1 0-.1.1-.2.1H9c-1.9 0-3.8-.7-5.3-1.9-.1.3-.2.6-.2 1-.2 2.1 1.1 4.1 3.1 4.7.2.1.4.3.4.5v.7c.2 2.1 2 3.6 4.2 3.5.2 0 .3.1.4.2.7 1.1 2 1.8 3.3 1.8 2 0 3.7-1.5 4-3.6 0-.1.1-.3.2-.3s.2-.1.4-.1h.5c1 0 1.9-.4 2.6-1.1.8-.8 1.2-1.9 1.1-3.1 0-.3.2-.5.5-.5s.5.2.5.5c.1 1.4-.4 2.8-1.4 3.8-.9.9-2.1 1.5-3.3 1.5h-.1c-.4 2.2-2.4 3.9-4.8 3.9zM25 12.5c-1.1 0-2-1.1-2-2.5s.9-2.5 2-2.5 2 1.1 2 2.5-.9 2.5-2 2.5zm0-4c-.5 0-1 .7-1 1.5s.5 1.5 1 1.5 1-.7 1-1.5-.5-1.5-1-1.5z"/><path d="M24.3 17.4c-.3 0-.5-.2-.5-.5l-.2-5.1c-.4-.5-.6-1.1-.6-1.8 0-.6.2-1.2.5-1.7.2-.2.5-.3.7-.1.2.2.3.5.1.7-.2.3-.3.7-.3 1.1 0 .5.2.9.4 1.2.1.1.1.2.1.3l.2 5.3c.1.3-.1.6-.4.6z"/><path d="M8 16.4c-.1 0-.2 0-.3-.1-.2-.2-.3-.5-.1-.7 2.1-2.6 5.3-4 8.7-3.5.6-3.8 3.3-7 7-8.2l.7-.1c1.4 0 2.6 1.1 2.6 2.5 0 .9-.5 1.8-1.3 2.2-.1 0-.1.1-.2.1s-.3 0-.4.1c-.2.2-.5.1-.7-.1-.2-.3-.2-.6 0-.8.2-.2.5-.3.8-.3.4-.3.7-.8.7-1.3 0-.8-.7-1.5-1.5-1.5l-.5.1c-3.4 1.1-6 4.2-6.4 7.9 0 .1-.1.3-.2.3s-.3.1-.4.1c-.5-.1-1-.1-1.5-.1-2.6 0-5 1.2-6.7 3.2-.1.1-.2.2-.3.2z"/><path d="M25.5 8.5c-.1 0-.2 0-.2-.1-.2 0-.3-.2-.3-.4v-.4c0-.1 0-.2.1-.3.2-.2.4-.5.4-1 0-.2 0-.4-.1-.6-.1-.1 0-.3 0-.5.1-.1.3-.2.4-.2h.2c1.7 0 3 1.3 3 3 0 .2-.1.4-.3.5s-.4.1-.5 0c-.7-.5-1.7-.5-2.4 0h-.3zM27 7c.3 0 .5 0 .8.1-.3-.5-.7-.9-1.3-1v.2c0 .3 0 .6-.1.8.2-.1.4-.1.6-.1zM16.3 20.7c-.5 0-1-.1-1.5-.2l-3.8-1c-.7-.2-1.1-.8-1.1-1.4 0-.7.4-1.3 1.1-1.4h.1c.9 0 1.7-.4 2.4-.9l1-.8c1.2-1 2.8-1.5 4.3-1.6 1.3 0 2.5.8 2.9 2.1.3.9.1 1.9-.4 2.7-1.2 1.5-3 2.5-5 2.5zm-5.1-3.1c-.3.1-.3.4-.3.5 0 .1 0 .4.4.5l3.8 1c2 .5 4.2-.3 5.4-2 .4-.5.5-1.2.3-1.8-.3-.8-1-1.4-1.9-1.4-1.4 0-2.7.5-3.7 1.3l-1 .8c-.9.6-1.9 1-3 1.1zM15.4 29.9c-.2 0-.4-.1-.5-.3-.1-.3 0-.5.3-.7l1.8-.8-.4-2.5c0-.3.1-.5.4-.6.3 0 .5.1.6.4l.4 2.9c0 .2-.1.4-.3.5l-2.1.9c-.1.2-.2.2-.2.2z"/><path d="M13 29.9c-.2 0-.4-.1-.5-.3-.1-.3 0-.5.2-.7l1.7-.8.1-2.6c0-.3.3-.5.5-.5.3 0 .5.2.5.5l-.1 2.9c0 .2-.1.4-.3.4l-2 .9c0 .2 0 .2-.1.2zM19.5 29.9h-.2l-2-.9c-.2-.1-.4-.4-.2-.7s.4-.4.7-.2l2 .9c.2.1.4.4.2.7-.1.1-.3.2-.5.2z"/><path d="M16 29.7c-.1 0-.2 0-.3-.1l-1-.7c-.2-.2-.3-.5-.1-.7.2-.2.5-.3.7-.1l1 .7c.2.2.3.5.1.7-.1.1-.2.2-.4.2z"/><circle cx="24" cy="6.5" r=".5"/><path d="M25.8 5.9c-.2 0-.4-.1-.5-.3-.2-.5-.8-.9-1.4-.9l-.5.1c-.4.2-1.1.5-1.8.9-.1.1-.3.1-.5 0-.1-.1-.3-.2-.3-.4l-.4-1.8c-.1-.5-.1-1 .2-1.4.2-.4.5-.6.9-.7.4-.1.8 0 1.1.3.1.1.3.1.4 0l.2-.2c.3-.3.6-.4 1-.4s.7.2.9.5l.1.2c.1.2.2.2.4.1.3-.2.7-.2 1.1-.1.3.1.6.4.8.7.2.5.2 1.1-.1 1.6l-1 1.6c-.2.2-.4.2-.6.2zM24 3.8c.7 0 1.4.3 1.9.8l.6-.9c.1-.2.1-.5.1-.7 0-.1-.1-.1-.2-.2h-.2c-.6.4-1.3.2-1.7-.3l-.1-.2c-.1-.1-.2-.1-.2-.1s-.1 0-.2.1l-.2.2c-.5.5-1.2.5-1.7.1-.1-.1-.2-.1-.2-.1s-.1 0-.2.2c-.1.3-.1.5-.1.8l.2 1.1c.5-.3 1-.5 1.5-.7l.7-.1c-.1 0-.1 0 0 0z"/></svg>