<svg xmlns="http://www.w3.org/2000/svg" viewBox="0 0 800 800"><g data-name="Layer 8"><path fill="gold" d="M321.74,632.3S313.21,597,320,582.11l-15.8,2a140.71,140.71,0,0,1,1.14,53.78S290.7,634.44,280,627.8s-46-8.34-52.66,13.92c-6.56,22,10.49,23.54,10.49,23.54s11.34,15.84,34.25,2.79S314,654.56,320.67,656.7s21,3.85,24.62-10.92S325.38,630.37,321.74,632.3Z"/><path fill="#ecf0f1" d="M344.85 639s10.64-1.68 11.07 14.74a15.59 15.59 0 0 0-12.57-3M226 647.78s-15.82-1.25-12.39 16c0 0 6.85-5.67 14.07-5z"/><path fill="#060e38" d="M255.07,677.19A26.62,26.62,0,0,1,235.74,669a17.89,17.89,0,0,1-10.83-7.15c-3.56-5.25-4-12.4-1.4-21.23,2.48-8.32,8.65-14.56,17.84-18.05,13.78-5.24,32.54-3.21,40.76,1.88,6.65,4.13,15.05,7,20,8.43a137.61,137.61,0,0,0-1.73-47.75,4,4,0,0,1,3.37-5l15.81-2a4,4,0,0,1,4.13,5.64c-4.56,9.92-1.27,32.35,1.12,43.84,5.78-.49,14.38.69,19.68,4.83,4.44,3.47,6.11,8.54,4.69,14.29-1.46,5.94-4.54,10.25-9.16,12.82-8,4.46-17.76,1.85-20.57,1-4.32-1.4-21.92-2.36-45.38,11C266.74,675.7,260.4,677.19,255.07,677.19ZM242,663.92c2.77,2.83,11.94,9.89,28.15.65,23.33-13.3,43.76-14.27,51.8-11.67,4.18,1.34,10.11,2,14.22-.32,2.63-1.47,4.36-4,5.28-7.75.8-3.25-.37-4.8-1.49-5.78-4.25-3.76-14.21-4-16.38-3.17a4,4,0,0,1-5.68-2.64c-.32-1.32-6.89-28.94-3.42-46.4l-5.36.66a148.48,148.48,0,0,1,.25,51,4,4,0,0,1-4.85,3.22c-.63-.15-15.45-3.65-26.58-10.56-5.71-3.54-21.68-5.77-33.7-1.21-6.87,2.62-11.25,6.94-13,12.87-1.88,6.33-1.76,11.32.36,14.45a8.79,8.79,0,0,0,2.92,2.67c1.42-7.55,5-13.38,10.75-17.39,15.94-11.13,42.53-3.33,43.66-3a4,4,0,1,1-2.31,7.66c-.23-.07-24-7-36.78,1.9C245.22,652.35,242.65,657.19,242,663.92Zm81.66-28.09,0,0Z"/><path fill="#ffd4a6" d="M322.32,558.42h0c.48.11,1,.2,1.45.3a151.17,151.17,0,0,1-58.72-25.58h0c-1.87,50.33,52.13,78.46,80.17,80.05h0C331.35,603.08,321.3,586,322.32,558.42Z"/><path d="M314.8,566.56l-1.45-.29h0c-.67,18.28,3.52,32,10.48,42.05a76.71,76.71,0,0,0,21.45,4.87h0c-13.9-10.11-23.95-27.22-22.93-54.77h0c.48.11,1,.2,1.45.3a151.17,151.17,0,0,1-58.72-25.58h0a64.91,64.91,0,0,0,1.06,14.51A152.57,152.57,0,0,0,314.8,566.56Z" opacity=".1"/><path fill="#060e38" d="M213.64 665.77a1.93 1.93 0 0 1-.67-.12 2 2 0 0 1-1.29-1.49c-1.2-6-.34-10.75 2.55-14 4.37-4.91 11.65-4.4 12-4.37a2 2 0 0 1 1.82 1.69l1.68 11a2 2 0 0 1-.52 1.67 2 2 0 0 1-1.63.62c-6.33-.56-12.56 4.53-12.63 4.58A2 2 0 0 1 213.64 665.77zm10.68-16c-1.9.14-5.08.73-7.12 3-1.53 1.74-2.21 4.23-2 7.43a23.83 23.83 0 0 1 10.19-3.54zM355.92 655.78a2 2 0 0 1-1.3-.48s-4.78-3.93-10.83-2.58a2 2 0 1 1-.87-3.9 16.71 16.71 0 0 1 10.67 1.23c-.56-3.44-1.76-6-3.55-7.48a6.84 6.84 0 0 0-4.88-1.56 2 2 0 1 1-.62-4 10.88 10.88 0 0 1 8.06 2.44c3.36 2.79 5.15 7.58 5.32 14.22a2 2 0 0 1-2 2.06z"/><path fill="#ecf0f1" d="M246.39,657.77s-13.49,8.78-7.71,18.84c0,0,6.85-9.21,13.06-10.38C251.74,666.23,254.85,658.2,246.39,657.77Z"/><path fill="#060e38" d="M238.68,678.61h-.11a2,2,0,0,1-1.62-1c-5.32-9.26,3.14-18.12,8.35-21.51a2,2,0,0,1,1.19-.33c3.15.16,5.4,1.26,6.7,3.25,2.12,3.27.6,7.46.42,7.93a2,2,0,0,1-1.5,1.24c-4.46.85-10.05,7.23-11.82,9.61A2,2,0,0,1,238.68,678.61Zm8.26-18.79c-2,1.44-8.56,6.69-7.59,12.83,2.46-2.76,6.55-6.72,10.79-8.07a4.8,4.8,0,0,0-.31-3.39A3.82,3.82,0,0,0,246.94,659.82Z"/><path fill="gold" d="M396.07,676.85s-9.34-38.67-1.85-55L376.91,624s6.85,26.24,1.24,58.91c0,0-16.07-3.75-27.79-11s-50.4-9.14-57.67,15.24C285.51,711.28,304.18,713,304.18,713s12.43,17.35,37.51,3,45.95-14.77,53.21-12.42,23,4.22,27-12S400.06,674.74,396.07,676.85Z"/><path fill="#ecf0f1" d="M421.38 684.23S433 682.4 433.5 700.37c0 0-5.92-5-13.76-3.29M291.26 693.81s-17.32-1.37-13.57 17.5c0 0 7.5-6.2 15.42-5.5z"/><path fill="#060e38" d="M323.06,725.63a28.72,28.72,0,0,1-21-9A19.19,19.19,0,0,1,290.35,709c-3.83-5.66-4.34-13.37-1.49-22.93,2.68-9,9.36-15.74,19.32-19.52,15-5.7,35.37-3.5,44.29,2,7.51,4.66,17,7.83,22.42,9.4A151.07,151.07,0,0,0,373,625.05a4,4,0,0,1,3.37-5l17.31-2.15a4,4,0,0,1,4.13,5.64c-5.08,11.06-1.37,36,1.26,48.57,6.23-.61,15.79.62,21.63,5.18,4.74,3.71,6.52,9.13,5,15.27-1.57,6.39-4.88,11-9.84,13.8-8.62,4.8-19.19,2-22.23,1-4.77-1.54-24.19-2.62-50,12.1C335.72,724,328.83,725.63,323.06,725.63Zm-14.76-14c2.94,3.08,13.19,11.29,31.41.91C365.15,698,387.39,697,396.13,699.77c4.65,1.5,11.27,2.19,15.88-.38,3-1.66,4.93-4.52,6-8.73.72-2.95.17-5-1.81-6.75-4.89-4.25-16-4.4-18.31-3.48a3.89,3.89,0,0,1-3.47.09,4,4,0,0,1-2.2-2.73c-.36-1.45-7.67-32.19-3.65-51.17l-6.79.85a161.87,161.87,0,0,1,.35,56.15,4,4,0,0,1-4.86,3.22c-.68-.16-16.85-4-29-11.51-6.32-3.92-24-6.4-37.23-1.36-7.65,2.91-12.52,7.73-14.49,14.34-2.1,7-1.95,12.63.44,16.15a10.15,10.15,0,0,0,3.79,3.29c1.47-8.42,5.4-14.9,11.72-19.31,17.3-12.09,46.25-3.6,47.47-3.23a4,4,0,0,1-2.3,7.66c-.26-.07-26.49-7.75-40.6,2.14C311.92,698.59,309.05,704,308.3,711.62Z"/><path fill="#060e38" d="M277.69 713.31a2 2 0 0 1-2-1.61c-1.3-6.54-.38-11.64 2.75-15.16 4.72-5.31 12.61-4.75 12.94-4.73a2 2 0 0 1 1.82 1.69l1.84 12a2 2 0 0 1-.52 1.68 2 2 0 0 1-1.63.62c-7-.62-13.9 5-14 5.06A2 2 0 0 1 277.69 713.31zm11.86-17.49c-2.08.13-5.76.75-8.1 3.4-1.77 2-2.51 4.88-2.23 8.59a25.83 25.83 0 0 1 11.55-4zM433.5 702.37a2 2 0 0 1-1.29-.47s-5.31-4.36-12-2.87a2 2 0 0 1-.87-3.9 18.26 18.26 0 0 1 11.89 1.48c-.59-4-1.94-6.94-4-8.65a7.63 7.63 0 0 0-5.5-1.75 2 2 0 1 1-.62-4 11.68 11.68 0 0 1 8.68 2.62c3.63 3 5.56 8.22 5.75 15.44a2 2 0 0 1-1.13 1.86A2 2 0 0 1 433.5 702.37z"/><path fill="#ecf0f1" d="M313.56,704.75s-14.77,9.61-8.44,20.63c0,0,7.5-10.08,14.3-11.37C319.42,714,322.82,705.22,313.56,704.75Z"/><path fill="#060e38" d="M305.12 727.38H305a2 2 0 0 1-1.62-1c-5.75-10 3.43-19.62 9.09-23.3a2 2 0 0 1 1.19-.32c3.38.17 5.8 1.34 7.18 3.47 2.27 3.51.64 8 .44 8.51a2 2 0 0 1-1.49 1.24c-5 .94-11.11 8-13.07 10.6A2 2 0 0 1 305.12 727.38zm9-20.58c-2.17 1.55-9.84 7.61-8.38 14.68 2.66-3 7.34-7.65 12.09-9.13a5.47 5.47 0 0 0-.34-4A4.36 4.36 0 0 0 314.11 706.8zm.54-.38zM345.25 618.19H345c-16.87-1-38.12-9.93-54.15-22.86-14.64-11.8-31.85-32.2-30.73-62.38a5 5 0 1 1 10 .37c-1.71 46.25 48.22 73.33 75.46 74.88a5 5 0 0 1-.28 10z"/><path fill="gold" d="M302.84,150.67c-1.35-19,3.31-52.7,46.77-74,0,0-10.7,21.19-8.74,38.88,0,0,23.58-20.88,46.52-6.89,0,0-17.75,14.59-19.58,32,0,0,13.32,18.49,35.37,12.3,0,0-23.66,28.43-53.69,22.08Z"/><path fill="#fff" d="M367.81 140.63c.68-6.48 3.55-12.55 6.9-17.64a65.14 65.14 0 0 0-10.36 14.11 16.74 16.74 0 0 0 6.39 22.38 31 31 0 0 0 21.06 3.91 74.65 74.65 0 0 0 11.38-10.46C381.13 159.12 367.81 140.63 367.81 140.63zM337 91a153 153 0 0 0-3 26.31 5.58 5.58 0 0 0 8.79 4.7c8.35-5.94 21.95-12.22 35.91-4.35a70.88 70.88 0 0 1 8.76-9c-22.94-14-46.52 6.89-46.52 6.89-2-17.69 8.74-38.88 8.74-38.88C332.45 85.05 321.35 95.4 314.27 106 321 98.87 325.07 96.84 337 91z" opacity=".5"/><path fill="#ecf0f1" d="M186 324.48c-56.29 27.21-37.07 76.23-8.93 98.6A143 143 0 0 0 191.27 433zM649.53 397.13s-21.39-61.66-75.25-57.43c0 0 73.88 39.22 24.72 132.16 0 0 3.71-33.45-9.11-60.26L447.48 332.08A118.58 118.58 0 0 1 441 314c-5-18.27-8.43-46.57 3.69-77.07 0 0-.89 35.6 17.57 57.13 0 0-13.33-144.75 106.5-125.52 0 0-61.3 16.35-60.17 94 0 0 35.71-50.88 84.49-30 32.52 13.9 45.9 40.68 51.21 57a78.36 78.36 0 0 1 3.29 13.69s-47.19-58.13-89.06-4c0 0 50.14-20.27 79.2 34.24C637.74 333.44 653.61 367.93 649.53 397.13z"/><path d="M649.53,397.13s-21.39-61.66-75.25-57.43c0,0,73.88,39.22,24.72,132.16,0,0,3.71-33.45-9.11-60.26L447.48,332.08A118.58,118.58,0,0,1,441,314l55.46,27.32c17.49,8.61,38.43-3.06,39.78-22.51,1.06-15.13,7.18-31.37,24.1-44.61,27.29-21.36,61.32-2.76,83.95,15.27a78.36,78.36,0,0,1,3.29,13.69s-47.19-58.13-89.06-4c0,0,50.14-20.27,79.2,34.24C637.74,333.44,653.61,367.93,649.53,397.13Z" opacity=".1"/><path fill="#ffd4a6" d="M427.44,330.36s-80-6.86-72.84-103.59S291.47,142,266.15,170.1,104.76,364.8,242.43,513c111.63,120.19,329.87-6.57,333.87-91.27C576.3,421.76,515,348.25,427.44,330.36Z"/><path fill="#ffd4a6" d="M322.35,558.42h0c-2.95,79.9,87.14,72,94.47,60.1s-2.8-24.43,4-36.86c8.83-16.14,34.86-39.85,34.86-39.85h0C413.63,559.49,366.07,567.84,322.35,558.42Z"/><path fill="#fff" d="M331.18,560.07c-3-.47-5.91-1-8.83-1.65h0c-2.95,79.9,87.14,72,94.47,60.1a17.79,17.79,0,0,0,1.59-3.26C396.49,622.88,334.75,620.05,331.18,560.07Z" opacity=".5"/><path d="M454.28,543.08l.59-.54.06-.06a1.62,1.62,0,0,1,.2-.18l.13-.13.23-.21.05-.05.11-.1h0q-3.4,1.43-6.85,2.77l-.56.22q-3.39,1.32-6.82,2.55l-.56.2q-3.5,1.25-7,2.4l-.33.11q-3.64,1.19-7.32,2.27h0c-34,10-70.07,13.36-103.84,6.09h0a94.07,94.07,0,0,0,.41,13.09c25.66,5.46,52.62,4.81,79-.23a4.21,4.21,0,0,1,4.46,6.2l0,.08c-6.8,12.43,3.32,25-4,36.86-3.25,5.29-22.85,9.78-43.36,6.14,24.86,9.84,54,4.51,58-2a18.06,18.06,0,0,0,2.19-5.26h0a24.17,24.17,0,0,0,.59-6.77v0c0-1.11-.13-2.22-.25-3.34l0-.17-.18-1.61,0-.23c-.06-.45-.11-.91-.17-1.36a.77.77,0,0,0,0-.15h0c-.73-6-1.39-12,1.89-18s8.72-12.77,14.42-19.15h0c7.74-8.67,15.84-16.4,19-19.39Z" opacity=".1"/><path fill="#f75c4c" d="M423.45,329.77c-18.9-2.51-39.67-1.58-60.7,6a122.7,122.7,0,0,0-23.45,11.11h0c-.71.16-35.9,7.88-47.12-22.41,0,0-11.27,34.07-39.1,47.38,0,0-34-13.44-30.17-55.66,0,0-14.28,30.72-40.85,40,4.93-91.69,67.71-167.88,84.1-186.09C291.47,142,361.76,130,354.6,226.77,348.4,310.39,407.36,326.85,423.45,329.77Z"/><path d="M268.34,487.12c-121.7-131-29.48-276.42,11-327.81a58.94,58.94,0,0,0-13.23,10.79C240.83,198.23,104.76,364.8,242.43,513c90.33,97.27,250.48,32.8,310.41-40.22C481,533.18,347.72,572.59,268.34,487.12Z" opacity=".1"/><path fill="#fff" d="M427.44,330.36s-80-6.86-72.84-103.59S291.47,142,266.15,170.1c-1.78,2-4.1,4.62-6.83,7.9,29.88-21.3,85.67-21.89,79.24,64.8-7.16,96.73,72.85,103.59,72.85,103.59,87.59,17.89,148.85,91.4,148.85,91.4-.83,17.73-11.06,37.31-27.74,56.07,26-23.31,42.7-49.24,43.78-72.1C576.3,421.76,515,348.25,427.44,330.36Z" opacity=".5"/><path fill="#060e38" d="M388.75 631a90.12 90.12 0 0 1-25.87-3.75c-17.76-5.39-47.31-21.53-45.55-69a5 5 0 1 1 10 .37c-1.36 36.9 18.3 51.89 35 58 23.09 8.39 47.34 3 50.2-.72 2.77-4.48 2.15-9.45 1.44-15.19-.81-6.5-1.72-13.85 2.4-21.4 9.13-16.68 34.8-40.16 35.89-41.15a5 5 0 0 1 6.73 7.4c-.25.23-25.52 23.34-33.84 38.55-2.58 4.72-2 9.65-1.26 15.36.83 6.66 1.76 14.2-2.88 21.73C417.42 627 404.29 631 388.75 631zM358.42 180a46.83 46.83 0 0 1-9.76-1 4 4 0 1 1 1.65-7.82c17.42 3.68 32.81-5.69 41.71-13-13.46-.93-23.43-9.53-27.46-15.13a4 4 0 0 1-.73-2.75c1.4-13.27 10.86-24.74 16.61-30.58-18.45-7.08-36.12 8.16-36.93 8.87a4 4 0 0 1-6.62-2.56c-1.17-10.59 1.79-22.12 4.65-30.27-32.47 20.38-35.84 48.77-34.71 64.71a4 4 0 1 1-8 .57c-1.38-19.44 3.15-55.4 49-77.92a4 4 0 0 1 5.33 5.4c-.08.17-7.42 14.9-8.44 29.34 9.24-5.76 26.95-13.42 44.73-2.57a4 4 0 0 1 .46 6.5c-.16.13-15.41 12.88-17.93 27.76 3.16 3.65 13.95 14.16 30.09 9.62a4 4 0 0 1 4.16 6.41C405.33 156.6 385.55 180 358.42 180zM599 476.86a4.94 4.94 0 0 1-1.47-.22 5 5 0 0 1-3.5-5.33c0-.32 3.38-32.4-8.65-57.55a5 5 0 1 1 9-4.31c6.19 13 8.72 27.22 9.64 38.89 10.13-28 9.11-53-3.09-74.53a82.82 82.82 0 0 0-29-29.7 5 5 0 0 1 2-9.39c23.74-1.87 45.21 8.14 62.1 28.95a114.82 114.82 0 0 1 8.5 12c-2.48-20.18-10.48-38.38-11.23-40-26.52-49.57-71-32.56-72.85-31.81a5 5 0 0 1-5.82-7.7c12.69-16.41 27.25-24.83 43.26-25h.55c16.06 0 30.17 8.33 39.81 16.05a95.38 95.38 0 0 0-4.2-9.62c-9.46-18.73-23.88-32.34-42.87-40.46-18.48-7.89-37.16-5.67-55.53 6.6a96.84 96.84 0 0 0-22.9 21.73 5 5 0 0 1-9.09-2.8c-.61-42 16.68-66.61 31.3-79.88a92.55 92.55 0 0 1 14.7-10.91c-21.54-.31-39.11 5.76-52.39 18.18-36 33.62-30 102.92-30 103.61a5 5 0 0 1-8.78 3.71c-8.59-10-13.26-22.66-15.79-33.8-4.76 31.87 5.41 58 9.33 66.48a5 5 0 1 1-9.09 4.17c-5.31-11.56-21.23-52.87-2.87-99.08a5 5 0 0 1 9.65 2c0 .25-.35 20.14 7.16 38.32.67-24.59 6.1-67.06 33.53-92.7 19.25-18 45.89-24.42 79.17-19.07a5 5 0 0 1 .5 9.76c-.13 0-14.66 4.09-28.78 17.06-15.86 14.57-25 34.07-27.17 58.11a105.24 105.24 0 0 1 15.65-13c21.14-14.23 43.71-16.88 65.29-7.66 50.86 21.73 57.26 72.55 57.51 74.7a5 5 0 0 1-8.85 3.73c-.2-.25-20.84-25.21-45.33-25.21h-.47c-8.62.11-16.84 3.38-24.57 9.74a70.36 70.36 0 0 1 14.43.05c16 1.72 38.33 10.09 54.37 40.18a2.1 2.1 0 0 1 .13.26c.68 1.46 16.43 36.17 12.21 66.47a5 5 0 0 1-9.68.95 108.32 108.32 0 0 0-16.77-29c-10.87-13.31-23.37-21.4-37.29-24.18a93.23 93.23 0 0 1 18.66 22.85c11.87 20.64 20.47 55.74-6 105.76A5 5 0 0 1 599 476.86zM191.26 438a5 5 0 0 1-2.6-.74A145.61 145.61 0 0 1 174 427c-15.09-12-31.71-35-28.9-60.25 1.5-13.51 9.45-32.59 38.76-46.76a5 5 0 1 1 4.35 9C168 338.76 156.82 351.84 155 367.85c-2.21 19.87 11.06 40.09 25.18 51.31a136.16 136.16 0 0 0 13.66 9.53 5 5 0 0 1-2.62 9.27z"/><path fill="#ecf0f1" d="M596.44,395.48l-.12-.07c-1.21-.76-3.15-1.1-5.68-1.09a69.26,69.26,0,0,0-13.44,1.78h0s-9.11-4.69-26.62-6.83h0a49.18,49.18,0,0,0-9.28-6.16h.16s-13.17-12.32-37-20.63h0s-69.41-52.83-141.77-26.7-53.51,76.54-23.33,100.53c31.47,25,104.35,59.89,222.72-5.84,0,0,26.69-14.87,34.46-25.93.08-.12.17-.23.24-.35s.16-.23.23-.35l.22-.35c.14-.22.26-.45.38-.68a3.65,3.65,0,0,0,.18-.34c0-.11.11-.22.15-.33a2.41,2.41,0,0,0,.15-.33c0-.11.09-.22.12-.33a3,3,0,0,0,.11-.32,7.42,7.42,0,0,0,.25-1l0-.22c0-.06,0-.13,0-.2a1.21,1.21,0,0,0,0-.19A4.42,4.42,0,0,0,596.44,395.48Z"/><path d="M596.44,395.48l-.12-.07a10.83,10.83,0,0,0-5.43-1.09C580.19,402.89,566,410.8,566,410.8c-118.37,65.74-191.26,30.86-222.72,5.85-14.16-11.26-25.83-28.33-26.75-46-11.26,23.81,3.47,50.2,22.89,65.64,31.47,25,104.35,59.89,222.72-5.84,0,0,26.69-14.87,34.46-25.93.08-.12.17-.23.24-.35s.16-.23.23-.35l.22-.35c.14-.22.26-.45.38-.68a3.65,3.65,0,0,0,.18-.34c0-.11.11-.22.15-.33a2.41,2.41,0,0,0,.15-.33c0-.11.09-.22.12-.33a3,3,0,0,0,.11-.32,7.42,7.42,0,0,0,.25-1l0-.22c0-.06,0-.13,0-.2a1.21,1.21,0,0,0,0-.19A4.42,4.42,0,0,0,596.44,395.48Z" opacity=".1"/><path fill="#fff" d="M362.75,353.38c72.36-26.13,141.77,26.71,141.77,26.71h0c23.79,8.31,37,20.63,37,20.63h-.16a49.18,49.18,0,0,1,9.28,6.16h0c17.51,2.15,26.62,6.83,26.62,6.83h0A75.61,75.61,0,0,1,589.5,412a43.46,43.46,0,0,0,7.1-7.41c.08-.12.17-.23.24-.35s.16-.23.23-.35l.22-.35c.14-.22.26-.45.38-.68a3.65,3.65,0,0,0,.18-.34c0-.11.11-.22.15-.33a2.41,2.41,0,0,0,.15-.33c0-.11.09-.22.12-.33a3,3,0,0,0,.11-.32,7.42,7.42,0,0,0,.25-1l0-.22c0-.06,0-.13,0-.2a1.21,1.21,0,0,0,0-.19,4.42,4.42,0,0,0-2.25-4.09l-.12-.07c-1.21-.76-3.15-1.1-5.68-1.09a69.26,69.26,0,0,0-13.44,1.78h0s-9.11-4.69-26.62-6.83h0a49.18,49.18,0,0,0-9.28-6.16h.16s-13.17-12.32-37-20.63h0s-69.41-52.83-141.77-26.7c-42.74,15.44-53.66,39.34-49.21,61.27C317.09,380.68,331.3,364.74,362.75,353.38Z" opacity=".5"/><path fill="#060e38" d="M504.52 367.48a5 5 0 0 1-3-1c-.42-.32-32.6-24.42-74.84-31.16-1.22-.21-2.45-.39-3.79-.56h0a5.19 5.19 0 0 1-1.69-.52 5 5 0 0 1 3.14-9.38c1.4.19 2.7.38 4 .59 44.83 7.16 77.89 32 79.28 33.07a5 5 0 0 1-3 9zM435.24 473.24q-8.89 0-17.54-.85c-38.58-3.79-65.56-19.58-81.39-32.17-14.67-11.66-29.9-32.17-28.63-54.76.66-11.67 6.22-28.57 29-42.81a5 5 0 0 1 5.3 8.48c-15.34 9.6-23.51 21.35-24.27 34.9-1.06 18.77 12.15 36.26 24.86 46.37 31.62 25.13 101.88 57.72 217.18-6.3.06 0 6.37-3.56 13.59-8.34a1.88 1.88 0 0 1 .23-.16c9.41-6.26 16.14-11.91 19-15.9a1.43 1.43 0 0 1 .14-.2l.15-.23.21-.34.08-.12.17-.31c0-.07.07-.13.1-.19l0-.09.09-.19.08-.21 0-.05 0-.09 0-.05a8.59 8.59 0 0 0-3-.31A64.42 64.42 0 0 0 578.23 401c-6.58 1.39-14.85 3.62-24.57 6.64-32.72 10.18-71.9 26.16-72.29 26.32a5 5 0 1 1-3.78-9.26c.39-.16 40-16.3 73.11-26.6 10-3.12 18.58-5.43 25.47-6.88a72.47 72.47 0 0 1 14.59-1.89 15.63 15.63 0 0 1 8 1.74c.14.08.3.18.47.3a9.37 9.37 0 0 1 4.42 8.36 3.89 3.89 0 0 1-.05.64 1.49 1.49 0 0 1 0 .21l0 .26 0 .26a12.27 12.27 0 0 1-.4 1.56c0 .15-.09.29-.14.43a5.37 5.37 0 0 1-.21.55 6.33 6.33 0 0 1-.26.62l-.15.31a.75.75 0 0 1-.06.13c-.1.21-.19.39-.29.56s-.31.58-.49.86l-.18.28c-.11.19-.24.39-.38.59l-.24.35c-3.63 5.18-10.83 11.35-21.44 18.43l-.24.17c-7.66 5.09-14.22 8.76-14.5 8.91C518.6 460.36 475.19 473.24 435.24 473.24zm157.29-71.59h0zm0 0h0zm0 0v0zm0 0h0zm0 0h0zm.75-1.09h0zm0-.09h0zm0 0v0zm.12-.2h0zm0 0h0zm0 0zm0 0h0zm10.21-.17v0zm-10.2.16h0zm0 0h0zm0 0h0zm0 0v0zm0 0h0zm10.2-.14h0zm-10.08-.2a.64.64 0 0 1 0 .07l0-.07zm0 0zm0 0v0h0zm-.14-.26h0zm.32-.6h0z"/><path fill="#060e38" d="M449.26,411.24a5,5,0,0,1-1.88-9.63c83.89-33.89,130.18-10.95,132.11-10a5,5,0,0,1-4.56,8.9c-.51-.26-44.62-21.66-123.8,10.33A5,5,0,0,1,449.26,411.24Z"/><path fill="#060e38" d="M550.6,394.27a5,5,0,0,1-3.37-1.31c-.18-.16-10.15-9-30.4-13.46-18.89-4.19-50.84-5.38-95.74,12.76a5,5,0,1,1-3.75-9.27c47.74-19.29,82.08-17.75,102.47-13.07,22.62,5.2,33.71,15.24,34.18,15.67a5,5,0,0,1-3.39,8.68Z"/><path fill="#060e38" d="M541.48 388.12a5 5 0 0 1-3.42-1.35c-.26-.24-14.39-13.13-39.11-20.86-33.22-10.39-68.84-7-105.86 10a5 5 0 1 1-4.17-9.09c49.25-22.62 88.92-18.07 113.53-10.26 26.82 8.5 41.82 22.36 42.45 22.94a5 5 0 0 1-3.42 8.65zM253.07 376.86a5.09 5.09 0 0 1-1.84-.35 55.43 55.43 0 0 1-18.34-13.25 56.76 56.76 0 0 1-14.48-30.12c-7.28 10-18.9 22.25-34.71 27.77a5 5 0 0 1-6.64-5c5.13-95.47 72-174.33 85.37-189.16 14.89-16.55 43.92-27.85 66.74-18.11 16 6.83 34.3 26 30.42 78.49-5.84 78.7 48.09 94.69 64.75 97.71a5 5 0 0 1-1.55 9.88c-20.56-2.73-40.19-.8-58.34 5.75A118.48 118.48 0 0 0 342 351.13a5 5 0 0 1-1.7.67c-12 2.65-35 2-47.58-15.67-5.73 11.75-17.56 30.73-37.44 40.24A4.94 4.94 0 0 1 253.07 376.86zM222.9 311.2a5.27 5.27 0 0 1 1.3.17 5 5 0 0 1 3.68 5.28c-2.95 32.6 18.37 46.2 25.1 49.65 24.13-12.92 34.34-43.08 34.44-43.39a5 5 0 0 1 9.44-.17c8.92 24.1 35.6 20.35 40.57 19.43a129.7 129.7 0 0 1 23.62-11.09A126.65 126.65 0 0 1 393.41 324a85.92 85.92 0 0 1-16.16-11.83c-21.1-19.72-30.39-48.59-27.64-85.79 2.73-36.88-5.69-60.59-24.37-68.56-18.45-7.87-43.11 2-55.37 15.6-12.58 14-74 86.38-82.22 174.78 19.72-10.88 30.6-33.87 30.72-34.13A5 5 0 0 1 222.9 311.2z"/><path fill="#060e38" d="M360.24 567.34A191.12 191.12 0 0 1 337 566c-39.08-4.78-72.12-21.44-98.2-49.52-44.13-47.5-64.89-101.5-61.71-160.51a5 5 0 0 1 10 .54c-3 56.19 16.85 107.73 59.05 153.17 65 70 158.09 46 195.1 32.5 34.38-12.57 66.79-32.1 91.27-55 24.1-22.52 37.89-45.82 38.84-65.59a5 5 0 0 1 10 .2h0a1.93 1.93 0 0 1 0 .24c-1.06 22.39-16 48.12-42 72.45-25.44 23.78-59 44-94.66 57.06C416 562 387.26 567.34 360.24 567.34zM427.45 335.36l-.42 0c-.18 0-1.78-.15-4.44-.64h0a5.41 5.41 0 0 1-1.42-.48 5 5 0 0 1 3.33-9.34c2.11.39 3.35.5 3.36.5a5 5 0 0 1-.41 10z"/><ellipse cx="262.73" cy="174.64" fill="#ecf0f1" rx="17.01" ry="22.15" transform="rotate(-1.52 262.336 174.256)"/><ellipse cx="262.73" cy="174.64" fill="#060d37" rx="5.89" ry="7.67" transform="rotate(-1.52 262.336 174.256)"/><path fill="#060e38" d="M263,200.79c-5.63,0-10.92-2.7-14.93-7.65a29.74,29.74,0,0,1-6.29-17.94c-.38-14.42,8.73-26.4,20.31-26.7s21.31,11.17,21.69,25.59a29.71,29.71,0,0,1-5.33,18.24c-3.84,5.3-9.17,8.3-15,8.46H263Zm-.45-44.3h-.25c-7.17.19-12.79,8.48-12.52,18.49a21.72,21.72,0,0,0,4.5,13.11c2.52,3.11,5.74,4.78,9,4.69h0c3.27-.09,6.37-1.92,8.72-5.16a21.67,21.67,0,0,0,3.8-13.33C275.47,164.41,269.56,156.49,262.5,156.49Z"/><path fill="gold" d="M263.22,224.47S247.68,194.18,220,192.68,176.83,203,176.83,203s24.72,33.49,72.23,27.63c0,0-23.62,24.54-67.73,12.27,0,0,32.22,37.43,68.6,10.31C249.93,253.21,266.1,241,263.22,224.47Z"/><g opacity=".5"><path fill="#fff" d="M213.14,201.87c27.72,1.5,43.25,31.79,43.25,31.79A25.31,25.31,0,0,1,253.47,250c4.58-4.67,11.75-14,9.75-25.53,0,0-15.54-30.29-43.26-31.79S176.83,203,176.83,203a45.35,45.35,0,0,0,3.35,3.86A77.62,77.62,0,0,1,213.14,201.87Z"/><path fill="#fff" d="M242.24,239.82c-2.87.36-5.66.56-8.37.65-11.4,5.07-29.07,9-52.54,2.43a69.09,69.09,0,0,0,15.56,12.61C226.56,256.1,242.24,239.82,242.24,239.82Z"/></g><path fill="#ecf0f1" d="M279.73,174.19c0-.46,0-.92-.07-1.38,1.74-9.41,8.14-16.45,15.95-16.66,9.39-.25,17.27,9.46,17.59,21.7s-7,22.34-16.41,22.59c-9,.24-16.66-8.74-17.52-20.31A28.22,28.22,0,0,0,279.73,174.19Z"/><ellipse cx="296.24" cy="178.3" fill="#060d37" rx="5.89" ry="7.67" transform="rotate(-1.52 295.46 178.089)"/><path fill="#060e38" d="M296.44,204.45c-10.91,0-20.16-10.45-21.16-24a3.89,3.89,0,0,1,.06-1,24.16,24.16,0,0,0,.39-5.1h0c0-.4,0-.8-.06-1.19a3.94,3.94,0,0,1,.06-1c2.12-11.48,10.25-19.68,19.78-19.93,5.82-.15,11.28,2.56,15.4,7.65a31.09,31.09,0,0,1,1,36.19c-3.85,5.29-9.17,8.3-15,8.45ZM283.3,180.31c.86,9.26,6.67,16.31,13.38,16.13,3.27-.08,6.37-1.92,8.72-5.15a23.15,23.15,0,0,0-.7-26.45c-2.52-3.11-5.72-4.78-9-4.69-5.59.15-10.49,5.43-12,12.91,0,.34,0,.68,0,1h0A32.38,32.38,0,0,1,283.3,180.31Z"/><path fill="#ecf0f1" d="M210.78,226.65,245.42,231v2.72c-21.58,23.8-64.09,9.17-64.09,9.17C195.55,242.62,210.78,226.65,210.78,226.65Z"/><path fill="#060e38" d="M181.33,247.9a5,5,0,0,1-.1-10c9.91-.19,22.08-10.68,25.94-14.7a5,5,0,0,1,7.23,6.9c-.68.71-16.85,17.49-33,17.8Z"/><path fill="#060e38" d="M222.34,268.06a52.76,52.76,0,0,1-22.49-5.31,73.92,73.92,0,0,1-22.31-16.58,5,5,0,0,1,5.13-8.08c22,6.11,38.35,2.62,48.86-2-38-2.69-57.78-28.86-58.72-30.14a5,5,0,0,1,1-6.93c.69-.53,17.21-12.93,46.44-11.35,30.24,1.64,46.75,33.16,47.43,34.5a5.13,5.13,0,0,1,.48,1.43c3.37,19.34-14.44,33-15.2,33.58C242.14,265.25,231.68,268.06,222.34,268.06Zm-23.16-16.92c11.57,6.94,29,12,47.76-1.94.11-.08,13.14-10.19,11.47-23.1-2.39-4.22-16.4-27.22-38.72-28.42-16.93-.92-29,3.51-35.13,6.57,8.14,8.34,29.56,25.65,63.89,21.42a5,5,0,0,1,4.22,8.43c-.84.87-17.06,17.27-47.21,17.27C203.43,251.37,201.33,251.3,199.18,251.14Z"/></g></svg>