<svg xmlns="http://www.w3.org/2000/svg" enable-background="new 0 0 64 64" viewBox="0 0 64 64"><path fill="#e28e58" d="M63.25,36.54c-2.77-3.94-10.9-4.05-11.82-4.05c-0.5,0-0.94,0.02-1.3,0.05c-0.36,0.04-0.71,0.05-1.05,0.05c-0.37,0-0.73-0.02-1.18-0.03c-1.56,1.63-1.19,4.07,0.66,6.72l0.05,0.07l0.08-0.04c4.05-1.99,8.89-2.41,12.23-2.41c0.83,0,1.65,0.03,2.46,0.07l0.15,0.01L63.25,36.54z"/><path fill="#df8526" d="M34.63,59.16l-1.09-1.83c-0.87-1.6-1.6-3.34-2.18-5.17c-0.75-2.36-0.68-4.4,0.23-6.61l0.33-0.79c1.02-2.35,1.76-4.05-1.24-6.5c-0.9-0.73-2.41-1.96-3.51-3.48l-0.08-0.11l-0.09,0.1c-2.33,2.61-6.21,7.77-6.02,13.01c0.11,2.93,1.49,5.59,4.1,7.91c1.93,1.72,3.74,2.56,5.53,2.56c0.94,0,1.88-0.25,2.8-0.73c0.31,0.57,0.64,1.12,0.99,1.65c-1.23,0.66-2.5,0.99-3.78,0.99c-2.25,0-4.54-1.02-6.81-3.04c-3.01-2.67-4.6-5.79-4.74-9.28c-0.22-6.21,4.3-12.01,7.02-14.91l0.04-0.05l-0.02-0.06c-0.32-0.89-0.38-1.77-0.17-2.6c0.54-2.16,2.73-3.85,6.72-5.17l-0.04-0.21c-1.29,0.12-2.23,0.39-2.25,0.41C17.32,28.47,3.2,41.22,0.47,43.83v19.51l0.09,0.01C3.43,63.79,6.18,64,8.95,64c4.25,0,7.91-0.51,11.46-0.99c3.47-0.48,7.07-0.97,11.18-0.97c1.76,0,3.48,0.09,5.24,0.27l0.28,0.03l-0.19-0.21C36.12,61.26,35.35,60.26,34.63,59.16z"/><path fill="#f16e62" d="M6.7,16.6c-0.18,2.12,0.73,4.39,2.5,6.22c2.54,2.64,6.38,4.09,10.82,4.09c0.23,0,0.46,0,0.75-0.03c3.18-1.59,6.24-2.76,9.08-3.46c0.07-0.02,1.77-0.54,3.98-0.54c1.7,0,3.22,0.31,4.6,0.94c1.3,0.6,2.37,1.51,3.19,2.7c1.62,2.36,3.68,3.73,6.2,4.08c0.43,0.06,0.84,0.09,1.25,0.09c0.29,0,0.59-0.01,0.89-0.04c0.51-0.04,1.07-0.07,1.67-0.07c0.58,0,1.2,0.02,1.85,0.07l0.1-0.04c2.22-2.87,4.97-9.51-1.59-21.82l-0.13-0.24L51.79,8.8c-0.46,1.81-1.4,4.28-3.27,5.76c-0.47,0.37-1.03,0.57-1.62,0.57c-0.4,0-0.78-0.09-1.15-0.26c-0.89-0.44-1.45-1.33-1.45-2.33c0-0.36,0-0.75,0.01-1.25c0.03-2.61,0.07-6.18-0.88-8.73l-0.1-0.26l-0.1,0.26c-1.19,3.08-2.89,6.99-5.61,9.89c-0.18,0.19-0.42,0.3-0.73,0.3c0,0-0.01,0-0.01,0c-0.28-0.01-0.54-0.14-0.71-0.35l-0.07-0.08c-1.5-1.9-5.3-6.86-8.14-12.01L27.81,0l-0.03,0.35c-0.29,3.14-0.13,6.39,0.48,9.65c0.07,0.32-0.05,0.67-0.3,0.89c-0.18,0.16-0.4,0.24-0.64,0.24c-0.09,0-0.19-0.01-0.28-0.04c-0.57-0.18-5.73-1.95-10.14-7.31l-0.18,0.1c0.66,2.02,1.91,4.44,3.7,7.18c0.27,0.4,0.19,0.94-0.17,1.25c-0.64,0.55-1.32,0.81-2.09,0.81c-1.98,0-4.15-1.86-6.07-3.5c-0.67-0.59-1.36-1.17-2.03-1.69L9.74,7.67L9.9,8.05c0.67,1.62,0.94,3.38,0.79,5.23c-0.03,0.44-0.37,0.8-0.81,0.87c-0.05,0.01-0.1,0.01-0.16,0.01c-0.37,0-0.73-0.24-0.88-0.6c-0.01-0.01-0.14-0.27-0.55-0.62c-0.35-0.31-1-0.74-2.1-1.11l-0.21-0.07l0.08,0.21C6.62,13.46,6.83,15.02,6.7,16.6z"/><path fill="#f16e62" d="M47.43,41l-0.1-0.12c-0.03-0.03-0.05-0.07-0.08-0.12c-3.15-4.07-2.56-6.89-1.52-8.54l0.07-0.12l-0.13-0.04c-2.21-0.73-4.11-2.23-5.65-4.47c-0.57-0.83-1.29-1.46-2.22-1.9c-8.05,1.62-9.74,3.83-10.03,5c-0.57,2.28,2.66,4.9,4.04,6.02c4.19,3.42,2.84,6.53,1.85,8.79l-0.13,0.3c-0.07,0.15-0.13,0.3-0.19,0.45c-0.73,1.8-0.79,3.39-0.18,5.31c1.82,5.71,4.9,9.42,6.98,10.86c0.26,0.19,0.55,0.34,0.89,0.46l0,0c0.42,0.16,0.88,0.25,1.37,0.26c0,0,0,0,0,0l0.21,0.01c1.16,0,2.34-0.43,3.24-1.19c8.21-7.02,3.54-18.12,2.97-19.39C48.28,42.02,47.83,41.5,47.43,41z M36.25,35.29c-1.89,0-3.42-1.54-3.42-3.42c0-1.89,1.54-3.43,3.42-3.43c1.89,0,3.43,1.54,3.43,3.43C39.69,33.75,38.15,35.29,36.25,35.29z"/><path fill="#e28e58" d="M36.25,30.16c-0.94,0-1.7,0.76-1.7,1.71c0,0.94,0.76,1.7,1.7,1.7c0.94,0,1.71-0.76,1.71-1.7C37.96,30.93,37.2,30.16,36.25,30.16z"/></svg>